<?xml version="1.0" encoding="UTF-8"?>
<svg id="Capa_2" data-name="Capa 2" xmlns="http://www.w3.org/2000/svg" viewBox="0 0 295.28 59.07">
  <defs>
    <style>
      .cls-1 {
        fill: #6d6c73;
      }

      .cls-2 {
        fill: #ff4c07;
      }
    </style>
  </defs>
  <g id="Layer_1" data-name="Layer 1">
    <g>
      <path class="cls-2" d="M61.75,28.42c-1.19-2.05-3.83-2.76-5.9-1.56-2.06,1.18-2.76,3.79-1.57,5.84,1.2,2.04,3.83,2.74,5.89,1.55,2.06-1.17,2.77-3.79,1.58-5.83"/>
      <path class="cls-2" d="M46.74,27.22c-1.85,1.05-2.49,3.41-1.42,5.26,1.07,1.83,3.46,2.48,5.31,1.4,1.85-1.06,2.49-3.42,1.41-5.26-1.06-1.84-3.45-2.48-5.3-1.41"/>
      <path class="cls-2" d="M37.59,27.58c-1.66,.95-2.22,3.04-1.26,4.68,.95,1.63,3.06,2.21,4.71,1.25,1.64-.94,2.22-3.03,1.26-4.68-.94-1.62-3.07-2.19-4.71-1.25"/>
      <path class="cls-2" d="M36.18,25.18c1.47-.84,1.98-2.71,1.12-4.17-.86-1.48-2.75-1.97-4.23-1.12-1.47,.85-1.98,2.72-1.12,4.18,.85,1.47,2.75,1.97,4.23,1.12"/>
      <path class="cls-2" d="M23.97,20.26c-1.27,.72-1.71,2.32-.98,3.58,.74,1.25,2.36,1.69,3.62,.96,1.27-.72,1.7-2.33,.97-3.58-.74-1.26-2.36-1.7-3.62-.96"/>
      <path class="cls-2" d="M19.53,28.67c-1.05,.6-1.41,1.92-.8,2.97,.61,1.04,1.95,1.4,2.99,.8,1.06-.6,1.42-1.93,.81-2.98-.6-1.04-1.95-1.4-3.01-.8"/>
      <path class="cls-2" d="M24.4,37.03c-.85,.49-1.14,1.57-.64,2.41,.49,.85,1.58,1.14,2.44,.65,.85-.49,1.15-1.57,.66-2.42-.49-.85-1.59-1.14-2.45-.64"/>
      <path class="cls-2" d="M47.92,24.29c1.68-.96,2.25-3.09,1.29-4.75-.98-1.67-3.11-2.23-4.79-1.28-1.68,.97-2.25,3.08-1.29,4.74,.97,1.66,3.11,2.23,4.78,1.28"/>
      <path class="cls-2" d="M36.43,16.14c.93,1.58,2.96,2.12,4.57,1.2,1.58-.91,2.12-2.93,1.2-4.51-.91-1.59-2.95-2.12-4.55-1.2-1.59,.91-2.14,2.93-1.22,4.51"/>
      <path class="cls-2" d="M32.56,10.54c-.82-1.42-2.65-1.9-4.07-1.08-1.42,.82-1.92,2.62-1.1,4.04,.84,1.42,2.65,1.9,4.08,1.09,1.43-.82,1.92-2.63,1.09-4.04"/>
      <path class="cls-2" d="M22.01,16.9c1.35-.77,1.82-2.48,1.04-3.82-.79-1.35-2.51-1.8-3.86-1.03-1.35,.77-1.82,2.49-1.02,3.83,.78,1.34,2.5,1.8,3.85,1.02"/>
      <path class="cls-2" d="M15.03,23.42c1.2-.69,1.6-2.19,.93-3.38-.7-1.19-2.22-1.6-3.42-.9-1.2,.68-1.61,2.19-.91,3.38,.68,1.19,2.23,1.6,3.41,.91"/>
      <path class="cls-2" d="M13.04,29.52c-.57-.98-1.82-1.32-2.81-.74-.99,.55-1.32,1.8-.76,2.78,.57,.97,1.83,1.31,2.8,.75,.99-.56,1.33-1.81,.76-2.79"/>
      <path class="cls-2" d="M15.29,38.94c-.48-.84-1.54-1.11-2.38-.63-.83,.48-1.12,1.54-.64,2.36,.48,.83,1.54,1.11,2.38,.63,.84-.47,1.13-1.54,.64-2.35"/>
      <path class="cls-2" d="M19.82,45.23c-.77,.43-1.03,1.4-.58,2.16,.44,.76,1.42,1.02,2.17,.58,.76-.44,1.03-1.4,.59-2.16-.44-.75-1.42-1.02-2.18-.58"/>
      <path class="cls-2" d="M29.3,47.94c-.65,.37-.88,1.19-.49,1.84,.38,.65,1.21,.86,1.86,.49,.65-.37,.87-1.2,.5-1.84-.38-.65-1.21-.87-1.87-.49"/>
      <path class="cls-2" d="M38.75,45.6c-.55,.31-.74,1.02-.42,1.55,.31,.54,1.01,.73,1.57,.42,.55-.31,.74-1.01,.42-1.57-.32-.54-1.02-.72-1.57-.4"/>
      <path class="cls-2" d="M58.28,24.32c1.87-1.07,2.51-3.44,1.42-5.29-1.07-1.86-3.46-2.49-5.34-1.43-1.88,1.06-2.52,3.45-1.43,5.29,1.07,1.86,3.46,2.5,5.34,1.42"/>
      <path class="cls-2" d="M53.26,15.82c1.77-1.03,2.39-3.28,1.36-5.05-1.03-1.78-3.32-2.38-5.1-1.36-1.79,1.02-2.39,3.28-1.36,5.05,1.02,1.77,3.3,2.37,5.09,1.36"/>
      <path class="cls-2" d="M45.61,9.28c1.61-.93,2.15-2.96,1.23-4.54-.94-1.6-2.99-2.14-4.59-1.22-1.61,.92-2.16,2.95-1.24,4.54,.93,1.59,2.99,2.14,4.59,1.22"/>
      <path class="cls-2" d="M36.38,5.88c1.52-.88,2.04-2.8,1.16-4.31-.88-1.51-2.82-2.03-4.34-1.16-1.52,.87-2.04,2.79-1.15,4.3,.86,1.51,2.81,2.02,4.33,1.16"/>
      <path class="cls-2" d="M26.53,5.61c1.35-.77,1.81-2.49,1.04-3.83-.78-1.36-2.52-1.81-3.87-1.03-1.36,.77-1.82,2.5-1.03,3.85,.78,1.33,2.51,1.79,3.87,1.02"/>
      <path class="cls-2" d="M18.25,5.15c-.74-1.26-2.36-1.69-3.64-.97-1.28,.73-1.71,2.35-.98,3.62,.74,1.27,2.37,1.7,3.65,.97,1.27-.73,1.71-2.34,.97-3.61"/>
      <path class="cls-2" d="M9.71,14.65c1.13-.64,1.51-2.06,.86-3.18-.65-1.12-2.09-1.5-3.21-.86-1.13,.65-1.51,2.07-.86,3.19,.65,1.11,2.09,1.5,3.21,.85"/>
      <path class="cls-2" d="M2.52,19.05c-1.05,.59-1.42,1.93-.81,2.97,.61,1.04,1.96,1.4,3,.79,1.06-.6,1.42-1.93,.81-2.97-.61-1.05-1.95-1.41-3-.8"/>
      <path class="cls-2" d="M3.57,29.61c-.53-.91-1.7-1.21-2.62-.7-.91,.53-1.23,1.68-.69,2.59,.52,.91,1.69,1.22,2.61,.69,.91-.53,1.23-1.68,.7-2.59"/>
      <path class="cls-2" d="M2.72,38.5c-.83,.49-1.13,1.55-.63,2.39,.48,.85,1.56,1.13,2.41,.64,.84-.48,1.13-1.55,.64-2.38-.49-.84-1.56-1.12-2.41-.65"/>
      <path class="cls-2" d="M7.7,47.08c-.72,.41-.97,1.33-.55,2.05,.42,.72,1.34,.96,2.06,.55,.72-.42,.97-1.33,.55-2.05-.41-.72-1.34-.96-2.06-.55"/>
      <path class="cls-2" d="M15.22,53.43c-.65,.38-.88,1.21-.5,1.86,.38,.65,1.21,.88,1.87,.5,.66-.38,.89-1.21,.5-1.86-.38-.65-1.21-.88-1.88-.5"/>
      <path class="cls-2" d="M24.52,56.94c-.55,.31-.74,1.01-.42,1.55,.31,.55,1.02,.73,1.57,.42,.55-.31,.74-1.01,.42-1.55-.32-.54-1.02-.73-1.57-.42"/>
      <path class="cls-2" d="M34.61,56.87c-.55,.32-.74,1.01-.42,1.56,.32,.55,1.02,.73,1.56,.42,.55-.32,.75-1.01,.43-1.56-.32-.54-1.02-.73-1.57-.42"/>
      <path class="cls-2" d="M43.54,53.68c-.51,.29-.68,.94-.39,1.44,.29,.5,.94,.67,1.44,.39,.51-.29,.68-.94,.4-1.44-.3-.5-.95-.68-1.45-.39"/>
      <path class="cls-2" d="M51.08,47.59c-.41,.24-.56,.76-.32,1.19,.24,.41,.77,.55,1.19,.31,.41-.23,.56-.76,.31-1.17-.23-.42-.77-.56-1.19-.32"/>
      <path class="cls-1" d="M103.94,31.09c-.08-2.88-1.04-5.04-2.87-6.48-1.84-1.44-4.23-2.16-7.17-2.16-1.29,0-2.53,.18-3.72,.54-1.19,.36-2.26,.9-3.21,1.62-.95,.72-1.75,1.62-2.39,2.7-.64,1.08-1.09,2.34-1.33,3.78h20.7Zm3.03,12.66c-1.57,1.8-3.54,3.13-5.9,3.99-2.36,.86-4.71,1.29-7.05,1.29s-4.42-.36-6.35-1.08c-1.94-.72-3.6-1.76-4.99-3.12-1.39-1.36-2.47-3.01-3.24-4.95-.77-1.94-1.15-4.11-1.15-6.51,0-2.24,.38-4.3,1.15-6.18,.77-1.88,1.84-3.5,3.21-4.86,1.37-1.36,3-2.42,4.9-3.18,1.9-.76,3.97-1.14,6.23-1.14s4.41,.34,6.35,1.02c1.94,.68,3.59,1.73,4.96,3.15,1.37,1.42,2.39,3.21,3.05,5.37,.67,2.16,.86,4.7,.58,7.62h-25.48c.12,1.44,.49,2.73,1.12,3.87,.62,1.14,1.42,2.12,2.39,2.94,.97,.82,2.09,1.44,3.36,1.86,1.27,.42,2.61,.63,4.02,.63,.85,0,1.72-.08,2.63-.24,.91-.16,1.79-.39,2.63-.69,.85-.3,1.64-.68,2.39-1.14,.75-.46,1.36-.99,1.85-1.59l3.39,2.94h-.06Z"/>
      <polygon class="cls-1" points="115.08 18.67 119.98 30.25 125 43.15 130.03 30.31 134.87 18.67 140.37 18.67 127.73 48.37 122.34 48.37 109.63 18.67 115.08 18.67"/>
      <path class="cls-1" d="M166.63,31.09c-.08-2.88-1.04-5.04-2.87-6.48-1.84-1.44-4.23-2.16-7.17-2.16-1.29,0-2.53,.18-3.72,.54-1.19,.36-2.26,.9-3.21,1.62-.95,.72-1.75,1.62-2.39,2.7-.65,1.08-1.09,2.34-1.33,3.78h20.7Zm3.03,12.66c-1.57,1.8-3.54,3.13-5.9,3.99-2.36,.86-4.71,1.29-7.05,1.29s-4.42-.36-6.35-1.08c-1.93-.72-3.6-1.76-4.99-3.12-1.39-1.36-2.47-3.01-3.24-4.95-.77-1.94-1.15-4.11-1.15-6.51,0-2.24,.38-4.3,1.15-6.18,.77-1.88,1.83-3.5,3.21-4.86,1.37-1.36,3-2.42,4.9-3.18,1.9-.76,3.97-1.14,6.23-1.14s4.42,.34,6.35,1.02c1.94,.68,3.59,1.73,4.96,3.15,1.37,1.42,2.39,3.21,3.05,5.37,.67,2.16,.86,4.7,.58,7.62h-25.48c.12,1.44,.49,2.73,1.12,3.87,.63,1.14,1.42,2.12,2.39,2.94,.97,.82,2.09,1.44,3.36,1.86,1.27,.42,2.61,.63,4.02,.63,.85,0,1.72-.08,2.63-.24,.91-.16,1.79-.39,2.63-.69,.85-.3,1.64-.68,2.39-1.14,.75-.46,1.36-.99,1.85-1.59l3.39,2.94h-.06Z"/>
      <path class="cls-1" d="M181.69,23.05c1.09-1.92,2.47-3.24,4.15-3.96,1.67-.72,3.36-1.08,5.05-1.08,1.29-.04,2.54,.17,3.75,.63,1.21,.46,2.28,1.03,3.21,1.71l-2.24,4.2c-.81-.56-1.61-.98-2.42-1.26-.81-.28-1.73-.42-2.79-.42-1.21,0-2.34,.21-3.39,.63-1.05,.42-1.98,1.02-2.78,1.8-.81,.78-1.44,1.71-1.91,2.79-.46,1.08-.7,2.3-.7,3.66v16.56h-4.96V18.73h4.6l.42,4.32Z"/>
      <path class="cls-1" d="M214.13,18.55h9.2v4.2h-9.26v16.2c0,1.76,.33,3.15,1,4.17,.67,1.02,1.91,1.53,3.72,1.53,.68,0,1.37-.11,2.06-.33,.69-.22,1.37-.49,2.06-.81l1.45,4.08c-1.94,.92-3.87,1.4-5.81,1.44-3.27,.08-5.66-.77-7.17-2.55-1.51-1.78-2.27-4.29-2.27-7.53V22.75h-5.99v-4.2h5.99v-7.98l5.02-.54v8.52Z"/>
      <path class="cls-1" d="M251.47,31.09c-.08-2.88-1.04-5.04-2.88-6.48-1.84-1.44-4.23-2.16-7.17-2.16-1.29,0-2.53,.18-3.72,.54-1.19,.36-2.26,.9-3.21,1.62-.95,.72-1.75,1.62-2.39,2.7-.65,1.08-1.09,2.34-1.33,3.78h20.7Zm3.02,12.66c-1.57,1.8-3.54,3.13-5.9,3.99-2.36,.86-4.71,1.29-7.05,1.29s-4.42-.36-6.36-1.08c-1.93-.72-3.6-1.76-4.99-3.12-1.39-1.36-2.47-3.01-3.24-4.95-.77-1.94-1.15-4.11-1.15-6.51,0-2.24,.38-4.3,1.15-6.18,.76-1.88,1.83-3.5,3.21-4.86,1.37-1.36,3-2.42,4.9-3.18,1.9-.76,3.97-1.14,6.23-1.14s4.42,.34,6.35,1.02c1.94,.68,3.59,1.73,4.96,3.15,1.37,1.42,2.39,3.21,3.05,5.37,.67,2.16,.86,4.7,.58,7.62h-25.48c.12,1.44,.49,2.73,1.12,3.87,.63,1.14,1.42,2.12,2.39,2.94,.97,.82,2.09,1.44,3.36,1.86,1.27,.42,2.61,.63,4.02,.63,.85,0,1.72-.08,2.63-.24,.91-.16,1.79-.39,2.63-.69,.85-.3,1.64-.68,2.39-1.14,.75-.46,1.36-.99,1.84-1.59l3.39,2.94h-.06Z"/>
      <path class="cls-1" d="M287.61,44.47c-1.57,1.6-3.3,2.76-5.18,3.48-1.88,.72-3.84,1.08-5.9,1.08s-4.15-.35-6.05-1.05c-1.9-.7-3.55-1.71-4.96-3.03-1.41-1.32-2.53-2.94-3.36-4.86-.83-1.92-1.24-4.12-1.24-6.6s.4-4.62,1.21-6.54c.8-1.92,1.91-3.54,3.33-4.86,1.41-1.32,3.06-2.33,4.96-3.03,1.9-.7,3.93-1.05,6.11-1.05,2.06,0,3.97,.36,5.75,1.08,1.78,.72,3.47,1.84,5.08,3.36l-3.21,3.24c-1.05-1.04-2.23-1.8-3.54-2.28-1.31-.48-2.63-.72-3.96-.72-1.49,0-2.89,.25-4.2,.75-1.31,.5-2.45,1.21-3.42,2.13-.97,.92-1.73,2.05-2.3,3.39-.57,1.34-.85,2.85-.85,4.53s.28,3.31,.85,4.65c.56,1.34,1.34,2.47,2.33,3.39,.99,.92,2.12,1.62,3.42,2.1,1.29,.48,2.66,.72,4.12,.72s2.8-.25,4.18-.75c1.37-.5,2.58-1.29,3.63-2.37l3.27,3.3-.06-.06Z"/>
      <path class="cls-1" d="M292.38,20.64v.82h.68c.15,0,.26-.04,.33-.13,.08-.09,.11-.18,.11-.28s-.04-.2-.11-.28c-.07-.09-.18-.13-.33-.13h-.69Zm.93,1.16l.72,.84v.1h-.51l-.71-.88h-.43v.88h-.47v-2.54h1.15c.18,0,.34,.03,.47,.11,.13,.07,.23,.17,.3,.27,.07,.11,.12,.23,.13,.36,.01,.13,0,.25-.04,.37-.04,.12-.12,.22-.22,.31-.1,.09-.23,.15-.39,.18h0Zm-2.4-.32c0,.28,.04,.55,.13,.79,.08,.24,.21,.46,.38,.64,.17,.18,.37,.33,.61,.43,.24,.1,.51,.15,.82,.15s.58-.05,.82-.15c.24-.1,.44-.25,.61-.43,.16-.18,.29-.4,.37-.64,.08-.24,.13-.5,.13-.78s-.04-.55-.13-.79c-.09-.24-.21-.46-.37-.64-.17-.18-.37-.32-.61-.43-.24-.1-.52-.15-.82-.15s-.58,.05-.82,.15c-.24,.1-.44,.25-.61,.43-.16,.18-.29,.39-.38,.64-.09,.24-.13,.51-.13,.8v-.02Zm1.93-2.45c.39,0,.74,.07,1.04,.2,.31,.13,.56,.31,.76,.53,.2,.22,.36,.48,.47,.78,.11,.3,.16,.62,.16,.95s-.06,.65-.16,.95c-.11,.3-.26,.56-.47,.79-.2,.23-.46,.4-.76,.54-.3,.13-.65,.19-1.04,.19s-.74-.06-1.04-.19c-.3-.13-.56-.31-.76-.54-.21-.22-.37-.49-.47-.79-.11-.3-.16-.61-.16-.95s.05-.66,.16-.95c.11-.3,.26-.56,.47-.78,.21-.22,.46-.4,.76-.53,.3-.13,.65-.2,1.04-.2"/>
    </g>
  </g>
</svg>